<mxfile host="app.diagrams.net" agent="Mozilla/5.0 (Windows NT 10.0; Win64; x64) AppleWebKit/537.36 (KHTML, like Gecko) Chrome/127.0.0.0 Safari/537.36" version="24.7.6">
  <diagram id="C5RBs43oDa-KdzZeNtuy" name="Page-1">
    <mxGraphModel dx="1707" dy="468" grid="1" gridSize="10" guides="1" tooltips="1" connect="1" arrows="1" fold="1" page="1" pageScale="1" pageWidth="827" pageHeight="1169" math="0" shadow="0">
      <root>
        <mxCell id="WIyWlLk6GJQsqaUBKTNV-0" />
        <mxCell id="WIyWlLk6GJQsqaUBKTNV-1" parent="WIyWlLk6GJQsqaUBKTNV-0" />
        <mxCell id="vbsBRB9houtNpdlnLaVW-26" value="" style="rounded=0;whiteSpace=wrap;html=1;fillColor=none;" vertex="1" parent="WIyWlLk6GJQsqaUBKTNV-1">
          <mxGeometry x="530" y="290" width="100" height="70" as="geometry" />
        </mxCell>
        <mxCell id="vbsBRB9houtNpdlnLaVW-30" value="(n,1)" style="edgeStyle=orthogonalEdgeStyle;rounded=0;orthogonalLoop=1;jettySize=auto;html=1;exitX=0.5;exitY=1;exitDx=0;exitDy=0;entryX=0.5;entryY=0;entryDx=0;entryDy=0;startArrow=classic;startFill=1;labelPosition=right;verticalLabelPosition=middle;align=left;verticalAlign=middle;horizontal=1;" edge="1" parent="WIyWlLk6GJQsqaUBKTNV-1" source="WIyWlLk6GJQsqaUBKTNV-7" target="vbsBRB9houtNpdlnLaVW-25">
          <mxGeometry relative="1" as="geometry" />
        </mxCell>
        <mxCell id="vbsBRB9houtNpdlnLaVW-48" style="edgeStyle=orthogonalEdgeStyle;rounded=0;orthogonalLoop=1;jettySize=auto;html=1;exitX=0.25;exitY=0;exitDx=0;exitDy=0;strokeWidth=2;endSize=10;endArrow=oval;endFill=1;" edge="1" parent="WIyWlLk6GJQsqaUBKTNV-1" source="WIyWlLk6GJQsqaUBKTNV-7">
          <mxGeometry relative="1" as="geometry">
            <mxPoint x="550" y="120" as="targetPoint" />
          </mxGeometry>
        </mxCell>
        <mxCell id="vbsBRB9houtNpdlnLaVW-49" style="edgeStyle=orthogonalEdgeStyle;rounded=0;orthogonalLoop=1;jettySize=auto;html=1;exitX=0.75;exitY=0;exitDx=0;exitDy=0;endSize=10;endArrow=oval;endFill=0;" edge="1" parent="WIyWlLk6GJQsqaUBKTNV-1" source="WIyWlLk6GJQsqaUBKTNV-7">
          <mxGeometry relative="1" as="geometry">
            <mxPoint x="610" y="120" as="targetPoint" />
          </mxGeometry>
        </mxCell>
        <mxCell id="WIyWlLk6GJQsqaUBKTNV-7" value="Pedidos" style="rounded=1;whiteSpace=wrap;html=1;fontSize=12;glass=0;strokeWidth=1;shadow=0;" parent="WIyWlLk6GJQsqaUBKTNV-1" vertex="1">
          <mxGeometry x="520" y="180" width="120" height="40" as="geometry" />
        </mxCell>
        <mxCell id="vbsBRB9houtNpdlnLaVW-2" value="(n,1)" style="edgeStyle=orthogonalEdgeStyle;rounded=0;orthogonalLoop=1;jettySize=auto;html=1;exitX=1;exitY=0.5;exitDx=0;exitDy=0;entryX=0;entryY=0.5;entryDx=0;entryDy=0;verticalAlign=bottom;" edge="1" parent="WIyWlLk6GJQsqaUBKTNV-1" source="WIyWlLk6GJQsqaUBKTNV-11" target="vbsBRB9houtNpdlnLaVW-1">
          <mxGeometry relative="1" as="geometry" />
        </mxCell>
        <mxCell id="vbsBRB9houtNpdlnLaVW-6" style="rounded=0;orthogonalLoop=1;jettySize=auto;html=1;exitX=0;exitY=1;exitDx=0;exitDy=0;strokeColor=default;endArrow=oval;endFill=1;strokeWidth=2;endSize=10;" edge="1" parent="WIyWlLk6GJQsqaUBKTNV-1">
          <mxGeometry relative="1" as="geometry">
            <mxPoint x="20" y="290" as="targetPoint" />
            <mxPoint x="20" y="220" as="sourcePoint" />
          </mxGeometry>
        </mxCell>
        <mxCell id="WIyWlLk6GJQsqaUBKTNV-11" value="Cliente" style="rounded=1;whiteSpace=wrap;html=1;fontSize=12;glass=0;strokeWidth=1;shadow=0;" parent="WIyWlLk6GJQsqaUBKTNV-1" vertex="1">
          <mxGeometry x="-10" y="180" width="210" height="40" as="geometry" />
        </mxCell>
        <mxCell id="vbsBRB9houtNpdlnLaVW-28" value="(1,n)" style="edgeStyle=orthogonalEdgeStyle;rounded=0;orthogonalLoop=1;jettySize=auto;html=1;exitX=0.5;exitY=0;exitDx=0;exitDy=0;entryX=0.5;entryY=1;entryDx=0;entryDy=0;labelPosition=right;verticalLabelPosition=middle;align=left;verticalAlign=middle;" edge="1" parent="WIyWlLk6GJQsqaUBKTNV-1" source="WIyWlLk6GJQsqaUBKTNV-12" target="vbsBRB9houtNpdlnLaVW-26">
          <mxGeometry relative="1" as="geometry" />
        </mxCell>
        <mxCell id="WIyWlLk6GJQsqaUBKTNV-12" value="Produtos" style="rounded=1;whiteSpace=wrap;html=1;fontSize=12;glass=0;strokeWidth=1;shadow=0;" parent="WIyWlLk6GJQsqaUBKTNV-1" vertex="1">
          <mxGeometry x="520" y="430" width="120" height="40" as="geometry" />
        </mxCell>
        <mxCell id="vbsBRB9houtNpdlnLaVW-3" value="(1,n)" style="edgeStyle=orthogonalEdgeStyle;rounded=0;orthogonalLoop=1;jettySize=auto;html=1;exitX=1;exitY=0.5;exitDx=0;exitDy=0;horizontal=1;verticalAlign=bottom;" edge="1" parent="WIyWlLk6GJQsqaUBKTNV-1" source="vbsBRB9houtNpdlnLaVW-1" target="WIyWlLk6GJQsqaUBKTNV-7">
          <mxGeometry relative="1" as="geometry" />
        </mxCell>
        <mxCell id="vbsBRB9houtNpdlnLaVW-1" value="Pede" style="rhombus;whiteSpace=wrap;html=1;" vertex="1" parent="WIyWlLk6GJQsqaUBKTNV-1">
          <mxGeometry x="310" y="160" width="100" height="80" as="geometry" />
        </mxCell>
        <mxCell id="vbsBRB9houtNpdlnLaVW-8" value="Código" style="rounded=1;whiteSpace=wrap;html=1;rotation=-90;" vertex="1" parent="WIyWlLk6GJQsqaUBKTNV-1">
          <mxGeometry x="-10" y="310" width="60" height="30" as="geometry" />
        </mxCell>
        <mxCell id="vbsBRB9houtNpdlnLaVW-12" value="Nome" style="rounded=1;whiteSpace=wrap;html=1;rotation=-90;" vertex="1" parent="WIyWlLk6GJQsqaUBKTNV-1">
          <mxGeometry x="20" y="310" width="60" height="30" as="geometry" />
        </mxCell>
        <mxCell id="vbsBRB9houtNpdlnLaVW-13" value="Endereço" style="rounded=1;whiteSpace=wrap;html=1;rotation=-90;" vertex="1" parent="WIyWlLk6GJQsqaUBKTNV-1">
          <mxGeometry x="50" y="310" width="60" height="30" as="geometry" />
        </mxCell>
        <mxCell id="vbsBRB9houtNpdlnLaVW-14" value="Telefone" style="rounded=1;whiteSpace=wrap;html=1;rotation=-90;" vertex="1" parent="WIyWlLk6GJQsqaUBKTNV-1">
          <mxGeometry x="80" y="310" width="60" height="30" as="geometry" />
        </mxCell>
        <mxCell id="vbsBRB9houtNpdlnLaVW-17" value="Status" style="rounded=1;whiteSpace=wrap;html=1;rotation=-90;" vertex="1" parent="WIyWlLk6GJQsqaUBKTNV-1">
          <mxGeometry x="110" y="310" width="60" height="30" as="geometry" />
        </mxCell>
        <mxCell id="vbsBRB9houtNpdlnLaVW-18" value="Limite" style="rounded=1;whiteSpace=wrap;html=1;rotation=-90;" vertex="1" parent="WIyWlLk6GJQsqaUBKTNV-1">
          <mxGeometry x="140" y="310" width="60" height="30" as="geometry" />
        </mxCell>
        <mxCell id="vbsBRB9houtNpdlnLaVW-19" style="rounded=0;orthogonalLoop=1;jettySize=auto;html=1;exitX=0;exitY=1;exitDx=0;exitDy=0;strokeColor=default;endArrow=oval;endFill=0;strokeWidth=1;endSize=10;" edge="1" parent="WIyWlLk6GJQsqaUBKTNV-1">
          <mxGeometry relative="1" as="geometry">
            <mxPoint x="50" y="290" as="targetPoint" />
            <mxPoint x="50" y="220" as="sourcePoint" />
          </mxGeometry>
        </mxCell>
        <mxCell id="vbsBRB9houtNpdlnLaVW-20" style="rounded=0;orthogonalLoop=1;jettySize=auto;html=1;exitX=0;exitY=1;exitDx=0;exitDy=0;strokeColor=default;endArrow=oval;endFill=0;strokeWidth=1;endSize=10;" edge="1" parent="WIyWlLk6GJQsqaUBKTNV-1">
          <mxGeometry relative="1" as="geometry">
            <mxPoint x="80" y="290" as="targetPoint" />
            <mxPoint x="80" y="220" as="sourcePoint" />
          </mxGeometry>
        </mxCell>
        <mxCell id="vbsBRB9houtNpdlnLaVW-21" style="rounded=0;orthogonalLoop=1;jettySize=auto;html=1;exitX=0;exitY=1;exitDx=0;exitDy=0;strokeColor=default;endArrow=oval;endFill=0;strokeWidth=1;endSize=10;" edge="1" parent="WIyWlLk6GJQsqaUBKTNV-1">
          <mxGeometry relative="1" as="geometry">
            <mxPoint x="110" y="290" as="targetPoint" />
            <mxPoint x="110" y="220" as="sourcePoint" />
          </mxGeometry>
        </mxCell>
        <mxCell id="vbsBRB9houtNpdlnLaVW-22" style="rounded=0;orthogonalLoop=1;jettySize=auto;html=1;exitX=0;exitY=1;exitDx=0;exitDy=0;strokeColor=default;endArrow=oval;endFill=0;strokeWidth=1;endSize=10;" edge="1" parent="WIyWlLk6GJQsqaUBKTNV-1">
          <mxGeometry relative="1" as="geometry">
            <mxPoint x="140" y="290" as="targetPoint" />
            <mxPoint x="140" y="220" as="sourcePoint" />
          </mxGeometry>
        </mxCell>
        <mxCell id="vbsBRB9houtNpdlnLaVW-23" style="rounded=0;orthogonalLoop=1;jettySize=auto;html=1;exitX=0;exitY=1;exitDx=0;exitDy=0;strokeColor=default;endArrow=oval;endFill=0;strokeWidth=1;endSize=10;" edge="1" parent="WIyWlLk6GJQsqaUBKTNV-1">
          <mxGeometry relative="1" as="geometry">
            <mxPoint x="170" y="290" as="targetPoint" />
            <mxPoint x="170" y="220" as="sourcePoint" />
          </mxGeometry>
        </mxCell>
        <mxCell id="vbsBRB9houtNpdlnLaVW-25" value="Consulta" style="rhombus;whiteSpace=wrap;html=1;" vertex="1" parent="WIyWlLk6GJQsqaUBKTNV-1">
          <mxGeometry x="530" y="290" width="100" height="70" as="geometry" />
        </mxCell>
        <mxCell id="vbsBRB9houtNpdlnLaVW-31" style="rounded=0;orthogonalLoop=1;jettySize=auto;html=1;exitX=0;exitY=1;exitDx=0;exitDy=0;strokeColor=default;endArrow=oval;endFill=1;strokeWidth=2;endSize=10;" edge="1" parent="WIyWlLk6GJQsqaUBKTNV-1">
          <mxGeometry relative="1" as="geometry">
            <mxPoint x="535" y="540" as="targetPoint" />
            <mxPoint x="535" y="470" as="sourcePoint" />
          </mxGeometry>
        </mxCell>
        <mxCell id="vbsBRB9houtNpdlnLaVW-33" style="rounded=0;orthogonalLoop=1;jettySize=auto;html=1;exitX=0;exitY=1;exitDx=0;exitDy=0;strokeColor=default;endArrow=oval;endFill=0;strokeWidth=1;endSize=10;" edge="1" parent="WIyWlLk6GJQsqaUBKTNV-1">
          <mxGeometry relative="1" as="geometry">
            <mxPoint x="564.5" y="540" as="targetPoint" />
            <mxPoint x="564.5" y="470" as="sourcePoint" />
          </mxGeometry>
        </mxCell>
        <mxCell id="vbsBRB9houtNpdlnLaVW-34" style="rounded=0;orthogonalLoop=1;jettySize=auto;html=1;exitX=0;exitY=1;exitDx=0;exitDy=0;strokeColor=default;endArrow=oval;endFill=0;strokeWidth=1;endSize=10;" edge="1" parent="WIyWlLk6GJQsqaUBKTNV-1">
          <mxGeometry relative="1" as="geometry">
            <mxPoint x="594.5" y="540" as="targetPoint" />
            <mxPoint x="594.5" y="470" as="sourcePoint" />
          </mxGeometry>
        </mxCell>
        <mxCell id="vbsBRB9houtNpdlnLaVW-35" style="rounded=0;orthogonalLoop=1;jettySize=auto;html=1;exitX=0;exitY=1;exitDx=0;exitDy=0;strokeColor=default;endArrow=oval;endFill=0;strokeWidth=1;endSize=10;" edge="1" parent="WIyWlLk6GJQsqaUBKTNV-1">
          <mxGeometry relative="1" as="geometry">
            <mxPoint x="624.5" y="540" as="targetPoint" />
            <mxPoint x="624.5" y="470" as="sourcePoint" />
          </mxGeometry>
        </mxCell>
        <mxCell id="vbsBRB9houtNpdlnLaVW-40" value="Código" style="rounded=1;whiteSpace=wrap;html=1;rotation=-90;" vertex="1" parent="WIyWlLk6GJQsqaUBKTNV-1">
          <mxGeometry x="505" y="560" width="60" height="30" as="geometry" />
        </mxCell>
        <mxCell id="vbsBRB9houtNpdlnLaVW-41" value="Nome" style="rounded=1;whiteSpace=wrap;html=1;rotation=-90;" vertex="1" parent="WIyWlLk6GJQsqaUBKTNV-1">
          <mxGeometry x="535" y="560" width="60" height="30" as="geometry" />
        </mxCell>
        <mxCell id="vbsBRB9houtNpdlnLaVW-42" value="Categoria" style="rounded=1;whiteSpace=wrap;html=1;rotation=-90;" vertex="1" parent="WIyWlLk6GJQsqaUBKTNV-1">
          <mxGeometry x="565" y="560" width="60" height="30" as="geometry" />
        </mxCell>
        <mxCell id="vbsBRB9houtNpdlnLaVW-43" value="Preço" style="rounded=1;whiteSpace=wrap;html=1;rotation=-90;" vertex="1" parent="WIyWlLk6GJQsqaUBKTNV-1">
          <mxGeometry x="595" y="560" width="60" height="30" as="geometry" />
        </mxCell>
        <mxCell id="vbsBRB9houtNpdlnLaVW-50" value="Número" style="rounded=1;whiteSpace=wrap;html=1;rotation=-90;" vertex="1" parent="WIyWlLk6GJQsqaUBKTNV-1">
          <mxGeometry x="520" y="60" width="60" height="30" as="geometry" />
        </mxCell>
        <mxCell id="vbsBRB9houtNpdlnLaVW-51" value="Data" style="rounded=1;whiteSpace=wrap;html=1;rotation=-90;" vertex="1" parent="WIyWlLk6GJQsqaUBKTNV-1">
          <mxGeometry x="580" y="60" width="60" height="30" as="geometry" />
        </mxCell>
      </root>
    </mxGraphModel>
  </diagram>
</mxfile>
